<?xml version="1.0" encoding="utf-8"?>
<!-- Generator: Adobe Illustrator 22.0.1, SVG Export Plug-In . SVG Version: 6.00 Build 0)  -->
<svg version="1.1" xmlns="http://www.w3.org/2000/svg" xmlns:xlink="http://www.w3.org/1999/xlink" x="0px" y="0px"
	 viewBox="0 0 1080 254" style="enable-background:new 0 0 1080 254;" xml:space="preserve">
<style type="text/css">
	.st0{fill:#F6CC11;}
	.st1{fill:#DAC386;}
	.st2{fill:url(#SVGID_1_);}
	.st3{fill:url(#SVGID_2_);}
	.st4{fill:url(#SVGID_3_);}
	.st5{fill:url(#SVGID_4_);}
	.st6{fill:url(#SVGID_5_);}
	.st7{fill:url(#SVGID_6_);}
	.st8{fill:url(#SVGID_7_);}
	.st9{fill:url(#SVGID_8_);}
	.st10{fill:url(#letter-t_1_);}
	.st11{fill:url(#lette-s_1_);}
	.st12{display:none;}
	.st13{fill:url(#CB_Icon_Logo_1_);}
	.st14{fill:url(#Clockbeats_2_);}
</style>
<g id="Layer_2">
	<g id="icon">
		<polygon class="st0" points="115.8,76.7 106.9,66 97.4,76.7 		"/>
		<polygon class="st0" points="109.9,117.3 145.8,81.6 122.9,81.6 		"/>
		<polygon class="st0" points="145.8,76.4 136,65.7 126.5,76.4 		"/>
		<polygon class="st0" points="95.3,81.6 106.5,118.1 117.7,81.6 		"/>
		<polygon class="st0" points="67.5,81.6 103.2,117.3 90.1,81.6 		"/>
		<polygon class="st0" points="130.6,64.4 112.2,64.4 121.1,75.1 		"/>
		<polygon class="st0" points="77.8,65.8 67.5,76.7 86.8,76.7 		"/>
		<polygon class="st0" points="101.5,64.4 83.1,64.4 92,75.1 		"/>
		<path class="st1" d="M88,123.6c4,4,4,10.4,0,14.4l-7.5,7.5v0.1l-7.9,7.8c-0.2,0.2-0.4,0.3-0.5,0.5l-17.4,17.4
			c-1.7,1.7-2.8,3.8-3.3,6l26.6,0.1l5.1-5.4c0.6-0.6,1.4-0.9,2.3-1c0.9,0,1.7,0.4,2.2,1l3.8,4.4l12.9-29.4c0.5-1.1,1.7-1.8,2.9-1.8
			c1.2,0.1,2.3,0.9,2.7,2.1l10.1,28.6l4.5-5.3c0.7-0.8,1.6-1.2,2.6-1c1,0.1,1.9,0.7,2.3,1.6l4.7,8.5l0.5-0.8
			c0.6-0.9,1.5-1.5,2.6-1.5H162c-0.5-2.2-1.6-4.3-3.3-6l-11.8-11.8h0l-21.6-21.6c-4-4-4-10.4,0-14.4l35.7-35.7
			c4-5.1,3.7-12.5-1-17.2l-17.9-17.9c-2.5-2.5-5.9-3.8-9.2-3.8l0,0H80.3c-3.3,0-6.6,1.2-9.2,3.8L53.2,70.7c-4.7,4.7-5,12.1-1,17.2
			L88,123.6z M63.5,73.4l11.4-11.3c1.6-1.6,3.8-2.4,5.9-2.4h51.7c2.1,0,4.3,0.8,5.9,2.4l11.4,11.3c3.2,3.2,3.2,8.4,0,11.5l-1.9,1.9
			h0.1l-29.7,29.3c-0.1,0.1-0.1,0.2-0.2,0.3l-9.2,9.1c-1.3,1.3-3.4,1.3-4.7,0l-3.9-3.8l0,0l0,0l-5.3-5.2c-0.1-0.1-0.1-0.1-0.2-0.2
			L65.3,86.8h0.1L63.5,85C60.3,81.8,60.3,76.6,63.5,73.4z"/>
		<path class="st0" d="M139,183.4l-2.3,3.9c-0.6,0.9-1.5,1.5-2.6,1.5c0,0,0,0,0,0c-1.1,0-2.1-0.6-2.6-1.6l-5.1-9.3l-5.1,6
			c-0.7,0.8-1.8,1.2-2.9,1c-1.1-0.2-2-1-2.3-2l-9-26.3l-12,26.7c-0.4,1-1.3,1.6-2.3,1.8c-1,0.1-2.1-0.2-2.7-1l-4.8-5.4l-3.7,4
			c-0.6,0.6-1.4,0.9-2.2,0.9c0,0,0,0,0,0l-27.8-0.1c0.6,2.1,1.6,4,3.3,5.7l17.4,17.4c2.5,2.5,5.7,3.7,9,3.7h0h51.3
			c3.2,0,6.5-1.2,8.9-3.7l17.4-17.4c1.6-1.6,2.7-3.6,3.3-5.7H139z"/>
	</g>
	<g id="text">
		<g>
			<linearGradient id="SVGID_1_" gradientUnits="userSpaceOnUse" x1="186.4021" y1="141.5146" x2="258.0699" y2="141.5146">
				<stop  offset="0" style="stop-color:#DAC386"/>
				<stop  offset="1" style="stop-color:#F6CC11"/>
			</linearGradient>
			<path class="st2" d="M210.7,181.6c-4.8-2.3-9.2-5.5-12.8-9.5c-7.4-8.2-11.5-19.4-11.5-30.5c0-11.1,4-22.4,11.5-30.6
				c3.7-4.1,8-7.3,12.8-9.5c5.1-2.4,10.7-3.6,16-3.6c12.1,0,21.8,4.5,28,11.9l3.4,4.1l-9,6.1l-3.4-4.1c-4-4.8-11-7.8-18.9-7.8
				c-15.8,0-29.2,14.4-29.2,33.5s13.4,33.4,29.2,33.4c7.9,0,15-3,18.9-7.8l3.4-4.1l9,6.1l-3.4,4.1c-6.1,7.5-16.2,11.9-28,11.9
				C221.1,185.2,215.8,183.9,210.7,181.6z"/>
			<linearGradient id="SVGID_2_" gradientUnits="userSpaceOnUse" x1="282.7558" y1="126.5608" x2="293.976" y2="126.5608">
				<stop  offset="0" style="stop-color:#DAC386"/>
				<stop  offset="1" style="stop-color:#F6CC11"/>
			</linearGradient>
			<path class="st3" d="M282.8,68H294v117.2h-11.2V68z"/>
			<linearGradient id="SVGID_3_" gradientUnits="userSpaceOnUse" x1="317.869" y1="141.4759" x2="401.3781" y2="141.4759">
				<stop  offset="0" style="stop-color:#DAC386"/>
				<stop  offset="1" style="stop-color:#F6CC11"/>
			</linearGradient>
			<path class="st4" d="M343.1,181.5c-5-2.3-9.5-5.5-13.3-9.5c-7.7-8.2-11.9-19.1-11.9-30.5s4.2-22.3,11.9-30.5
				c3.8-4.1,8.3-7.3,13.3-9.5c5.2-2.4,10.8-3.6,16.6-3.6s11.3,1.2,16.6,3.6c5,2.3,9.5,5.5,13.3,9.5c7.7,8.2,11.9,19.1,11.9,30.5
				s-4.2,22.3-11.9,30.5c-3.8,4.1-8.3,7.3-13.3,9.5c-5.2,2.3-10.8,3.6-16.6,3.6S348.3,183.9,343.1,181.5z M329.1,141.5
				c0,18.6,13.9,33.4,30.5,33.4c16.6,0,30.5-14.8,30.5-33.4s-13.9-33.4-30.5-33.4S329.1,122.8,329.1,141.5z"/>
			<linearGradient id="SVGID_4_" gradientUnits="userSpaceOnUse" x1="422.0778" y1="141.5146" x2="493.7457" y2="141.5146">
				<stop  offset="0" style="stop-color:#DAC386"/>
				<stop  offset="1" style="stop-color:#F6CC11"/>
			</linearGradient>
			<path class="st5" d="M446.4,181.6c-4.8-2.3-9.2-5.5-12.8-9.5c-7.4-8.2-11.5-19.4-11.5-30.5c0-11.1,4-22.4,11.5-30.6
				c3.7-4.1,8-7.3,12.8-9.5c5.1-2.4,10.7-3.6,16-3.6c12.1,0,21.8,4.5,28,11.9l3.4,4.1l-9,6.1l-3.4-4.1c-4-4.8-11-7.8-18.9-7.8
				c-15.8,0-29.2,14.4-29.2,33.5s13.4,33.4,29.2,33.4c7.9,0,15-3,18.9-7.8l3.4-4.1l9,6.1l-3.4,4.1c-6.2,7.5-16.3,11.9-28,11.9
				C456.8,185.2,451.4,183.9,446.4,181.6z"/>
			<linearGradient id="SVGID_5_" gradientUnits="userSpaceOnUse" x1="521.475" y1="126.5608" x2="600.6156" y2="126.5608">
				<stop  offset="0" style="stop-color:#DAC386"/>
				<stop  offset="1" style="stop-color:#F6CC11"/>
			</linearGradient>
			<path class="st6" d="M599.6,185.2h-14.9L543.9,142c0,0-1.2-1.1-2.2-1.1c-0.2,0-0.8,0.1-1.1,0.3l-7.9,5.7v38.3h-11.2V68h11.2v65.8
				l49.8-35.9h18.1l-49.9,36c1,0.8,1.7,1.4,1.9,1.8L599.6,185.2z"/>
			<linearGradient id="SVGID_6_" gradientUnits="userSpaceOnUse" x1="622.4739" y1="126.5608" x2="692.4456" y2="126.5608">
				<stop  offset="0" style="stop-color:#DAC386"/>
				<stop  offset="1" style="stop-color:#F6CC11"/>
			</linearGradient>
			<path class="st7" d="M622.5,185.2V68h11.2v28c0,0,0,1.5,0.8,2.3c0.6,0.6,1.9,1.1,4.2,1.1l6.5,0c12.6,0,24.5,4.5,33.4,12.6
				c8.9,8.1,13.8,18.9,13.8,30.3c0,11.5-4.9,22.2-13.8,30.3c-8.9,8.1-20.8,12.6-33.4,12.6H622.5z M645.3,174.9
				c19.8,0,36-14.7,36-32.7c0-18-16.1-32.7-36-32.7l-6.5,0c-1.8,0-3.7-0.2-5-0.5v65.9H645.3z"/>
			<linearGradient id="SVGID_7_" gradientUnits="userSpaceOnUse" x1="712.2529" y1="141.5036" x2="785.5837" y2="141.5036">
				<stop  offset="0" style="stop-color:#DAC386"/>
				<stop  offset="1" style="stop-color:#F6CC11"/>
			</linearGradient>
			<path class="st8" d="M723.7,172c-5.2-5.7-8.7-12.8-10.3-20.4c0-0.1-1.1-4-1.1-10.1c0-11.4,4.1-22.3,11.5-30.5
				c3.7-4.1,8-7.3,12.9-9.6c5-2.4,10.4-3.6,16-3.6c9.4,0,16.8,2.2,22.4,6.4c5.4,4,8.4,9.6,8.4,15.5c0,6.3-3.4,12.3-9.3,16.5
				c-6.3,4.5-15.1,6.8-25.2,6.8H727c-0.1,0-1.4,0.1-1.8,0.5c-1.7,1.5-1.2,3.8-1.2,3.8l0,0.1l0,0c2.5,15.8,14.7,27.5,28.8,27.5
				c9.4,0,16.3-2.8,20.5-7.9l3.4-4.1l9,6.1l-3.4,4.1c-4.5,5.5-13.4,12-29.5,12C741.6,185.2,731.3,180.4,723.7,172z M724.4,133
				c1.8-0.2,2.5-0.2,2.6-0.2h21.8c7.8,0,14.1-1.7,18.2-4.6c3.3-2.4,5-5.4,5-8.4c0-5.3-5.5-11.7-19.4-11.7
				C739.3,108.1,727.8,118.6,724.4,133z"/>
			<linearGradient id="SVGID_8_" gradientUnits="userSpaceOnUse" x1="806.3611" y1="141.5091" x2="875.8506" y2="141.5091">
				<stop  offset="0" style="stop-color:#DAC386"/>
				<stop  offset="1" style="stop-color:#F6CC11"/>
			</linearGradient>
			<path class="st9" d="M817,177.9c-6.8-4.9-10.7-11.6-10.7-18.9c0-7.2,3.9-14,10.7-18.9c6.5-4.7,15.1-7.3,24.1-7.3l19.5,0
				c0,0,2,0,2.8-0.7c0.6-0.5,1.1-1.6,1.2-3.4V124c0-8.5-9.6-15.9-22.1-15.9c-8,0-15.1,3-19.1,7.9l-3.4,4.1l-9-6.1l3.4-4.1
				c6.2-7.6,16.7-12,28.1-12c8.7,0,16.9,2.6,23.2,7.3c6.5,4.9,10.1,11.6,10.1,18.8v35c0,7.2-3.8,14-10.7,18.9
				c-6.5,4.7-15.1,7.3-24.1,7.3C832.1,185.2,823.5,182.6,817,177.9z M841.1,143.1c-6.6,0-12.6,1.8-17.1,5.1c-4.2,3-6.4,6.9-6.4,10.9
				c0,4,2.2,7.8,6.4,10.9c4.5,3.2,10.5,5.1,17.1,5.1c6.6,0,12.6-1.8,17.1-5.1c4.2-3,6.4-6.9,6.4-10.9v-16.3
				c-2.1,0.4-3.6,0.4-4.2,0.4L841.1,143.1z"/>
			<linearGradient id="letter-t_1_" gradientUnits="userSpaceOnUse" x1="907.0444" y1="126.5608" x2="943.3605" y2="126.5608">
				<stop  offset="0" style="stop-color:#DAC386"/>
				<stop  offset="1" style="stop-color:#F6CC11"/>
			</linearGradient>
			<path id="letter-t_8_" class="st10" d="M941.8,174.9h1.6v10.2h-1.6c-9.4,0-18.1-3.6-24.7-10c-6.5-6.3-10-14.8-10-23.7V68h11.2
				v31.9c1.7-0.4,3.2-0.5,5.1-0.5h20v10.2h-20c-2.4,0-3.7,0.5-4.3,1.1c-0.6,0.6-0.8,1.7-0.8,2.1v38.7
				C918.3,164.5,928.9,174.9,941.8,174.9z"/>
			<linearGradient id="lette-s_1_" gradientUnits="userSpaceOnUse" x1="967.3257" y1="141.5146" x2="1036" y2="141.5146">
				<stop  offset="0" style="stop-color:#DAC386"/>
				<stop  offset="1" style="stop-color:#F6CC11"/>
			</linearGradient>
			<path id="lette-s_8_" class="st11" d="M982.4,182c-5.9-2.4-9.4-6-11.7-8.7l-3.4-4l8.9-6.2l3.4,4c3.5,4.2,7.5,7.9,23.2,7.9
				c14.1,0,22-6,22-15.4c0-4-1.6-6.6-5.7-8.8c-4.3-2.3-10.8-3.9-17.1-5.3c-7-1.6-14.4-3.3-20.3-6.6c-7.4-4.1-11.3-10.2-11.3-17.8
				c0-6.8,2.7-12.6,8-16.6c5.7-4.4,14-6.5,24.5-6.5c10.3,0,19.8,4.4,26.2,12l3.4,4l-8.9,6.2l-3.4-4c-4.3-5.1-10.6-8-17.3-8
				c-14.9,0-21.3,4.5-21.3,12.9c0,4.2,1.7,6.8,5.9,9.1c4.3,2.4,10.9,3.9,17.3,5.4c7,1.6,14.3,3.3,20.2,6.5c7.3,4,11.2,10,11.2,17.6
				c0,7.2-3.1,13.7-8.8,18.3c-6,4.8-14.5,7.3-24.5,7.3C994.3,185.1,987.8,184.2,982.4,182z"/>
		</g>
	</g>
</g>
<g id="Layer_1" class="st12">
	<linearGradient id="CB_Icon_Logo_1_" gradientUnits="userSpaceOnUse" x1="106.3156" y1="48.0186" x2="106.3156" y2="211.0843">
		<stop  offset="0.25" style="stop-color:#F5CB32"/>
		<stop  offset="1" style="stop-color:#CCAC5B"/>
	</linearGradient>
	<path id="CB_Icon_Logo" class="st13" d="M96.9,76l9.6-10.8l9,10.8H96.9z M109.6,117.1L145.9,81h-23.2L109.6,117.1z M145.9,75.8
		L136,64.9l-9.6,10.8H145.9z M94.8,81l11.3,36.9L117.5,81H94.8z M66.7,81l36.1,36.1L89.6,81H66.7z M130.5,63.6h-18.6l9,10.8
		L130.5,63.6z M77.1,65L66.7,76h19.5L77.1,65z M101.1,63.6H82.5l9,10.8L101.1,63.6z M51.3,87.3c-4.1-5.1-3.7-12.6,1-17.4l18.1-18.1
		c2.6-2.6,5.9-3.8,9.3-3.8H133l0,0c3.4,0,6.7,1.3,9.3,3.8L160.4,70c4.7,4.7,5.1,12.3,1,17.4l-36.1,36.1c-4,4-4,10.5,0,14.5
		l21.8,21.8h0l11.9,11.9c1.7,1.7,2.8,3.8,3.4,6h-25.1c-1.1,0-2.1,0.6-2.6,1.5l-0.5,0.8l-4.7-8.6c-0.5-0.9-1.4-1.5-2.4-1.6
		c-1-0.1-2,0.3-2.6,1.1l-4.5,5.3l-10.2-28.9c-0.4-1.2-1.5-2-2.8-2.1c-1.3,0-2.4,0.7-3,1.8l-13.1,29.7l-3.9-4.4c-0.6-0.6-1.4-1-2.3-1
		c-0.9,0-1.7,0.3-2.3,1l-5.1,5.5l-26.9-0.1c0.5-2.2,1.6-4.3,3.4-6.1l17.6-17.6c0.2-0.2,0.4-0.3,0.5-0.5l8-7.9v-0.1l7.6-7.6
		c4-4,4-10.5,0-14.5L51.3,87.3z M62.7,84.4l1.9,1.9h-0.1L94.3,116c0.1,0.1,0.1,0.1,0.2,0.2l5.4,5.3l0,0l0,0l3.9,3.9
		c1.3,1.3,3.4,1.3,4.7,0l9.3-9.2c0.1-0.1,0.1-0.2,0.2-0.3l30.1-29.6h-0.1l1.9-1.9c3.2-3.2,3.2-8.4,0-11.7l-11.5-11.4
		c-1.7-1.6-3.8-2.4-6-2.4H80.2c-2.2,0-4.3,0.8-6,2.4L62.7,72.7C59.4,75.9,59.4,81.2,62.7,84.4z M139,184l-2.3,3.9
		c-0.6,0.9-1.6,1.5-2.6,1.5c0,0,0,0,0,0c-1.1,0-2.1-0.6-2.6-1.6l-5.2-9.4l-5.2,6c-0.7,0.8-1.8,1.2-2.9,1c-1.1-0.2-2-1-2.3-2
		l-9.1-26.6l-12.1,27c-0.4,1-1.3,1.6-2.3,1.8c-1,0.1-2.1-0.2-2.8-1l-4.8-5.4l-3.8,4c-0.6,0.6-1.4,1-2.2,1c0,0,0,0,0,0L50.4,184
		c0.6,2.1,1.6,4.1,3.3,5.7l17.6,17.6c2.5,2.5,5.8,3.7,9.1,3.7h0h51.9c3.3,0,6.5-1.2,9-3.7l17.6-17.6c1.7-1.7,2.7-3.6,3.3-5.8H139z"
		/>
	<linearGradient id="Clockbeats_2_" gradientUnits="userSpaceOnUse" x1="186.4021" y1="126.5718" x2="1036" y2="126.5718">
		<stop  offset="0.5" style="stop-color:#F5CB32"/>
		<stop  offset="0.5" style="stop-color:#CCAC5B"/>
	</linearGradient>
	<path id="Clockbeats_1_" class="st14" d="M210.7,181.6c-4.8-2.3-9.2-5.5-12.8-9.5c-7.4-8.2-11.5-19.4-11.5-30.5
		c0-11.1,4-22.4,11.5-30.6c3.7-4.1,8-7.3,12.8-9.5c5.1-2.4,10.7-3.6,16-3.6c12.1,0,21.8,4.5,28,11.9l3.4,4.1l-9,6.1l-3.4-4.1
		c-4-4.8-11-7.8-18.9-7.8c-15.8,0-29.2,14.4-29.2,33.5s13.4,33.4,29.2,33.4c7.9,0,15-3,18.9-7.8l3.4-4.1l9,6.1l-3.4,4.1
		c-6.1,7.5-16.2,11.9-28,11.9C221.1,185.2,215.8,183.9,210.7,181.6z M282.8,68H294v117.2h-11.2V68z M343.1,181.5
		c-5-2.3-9.5-5.5-13.3-9.5c-7.7-8.2-11.9-19.1-11.9-30.5s4.2-22.3,11.9-30.5c3.8-4.1,8.3-7.3,13.3-9.5c5.2-2.4,10.8-3.6,16.6-3.6
		s11.3,1.2,16.6,3.6c5,2.3,9.5,5.5,13.3,9.5c7.7,8.2,11.9,19.1,11.9,30.5s-4.2,22.3-11.9,30.5c-3.8,4.1-8.3,7.3-13.3,9.5
		c-5.2,2.3-10.8,3.6-16.6,3.6S348.3,183.9,343.1,181.5z M329.1,141.5c0,18.6,13.9,33.4,30.5,33.4c16.6,0,30.5-14.8,30.5-33.4
		s-13.9-33.4-30.5-33.4S329.1,122.8,329.1,141.5z M446.4,181.6c-4.8-2.3-9.2-5.5-12.8-9.5c-7.4-8.2-11.5-19.4-11.5-30.5
		c0-11.1,4-22.4,11.5-30.6c3.7-4.1,8-7.3,12.8-9.5c5.1-2.4,10.7-3.6,16-3.6c12.1,0,21.8,4.5,28,11.9l3.4,4.1l-9,6.1l-3.4-4.1
		c-4-4.8-11-7.8-18.9-7.8c-15.8,0-29.2,14.4-29.2,33.5s13.4,33.4,29.2,33.4c7.9,0,15-3,18.9-7.8l3.4-4.1l9,6.1l-3.4,4.1
		c-6.2,7.5-16.3,11.9-28,11.9C456.8,185.2,451.4,183.9,446.4,181.6z M599.6,185.2h-14.9L543.9,142c0,0-1.2-1.1-2.2-1.1
		c-0.2,0-0.8,0.1-1.1,0.3l-7.9,5.7v38.3h-11.2V68h11.2v65.8l49.8-35.9h18.1l-49.9,36c1,0.8,1.7,1.4,1.9,1.8L599.6,185.2z
		 M622.5,185.2V68h11.2v28c0,0,0,1.5,0.8,2.3c0.6,0.6,1.9,1.1,4.2,1.1l6.5,0c12.6,0,24.5,4.5,33.4,12.6c8.9,8.1,13.8,18.9,13.8,30.3
		c0,11.5-4.9,22.2-13.8,30.3c-8.9,8.1-20.8,12.6-33.4,12.6H622.5z M645.3,174.9c19.8,0,36-14.7,36-32.7c0-18-16.1-32.7-36-32.7
		l-6.5,0c-1.8,0-3.7-0.2-5-0.5v65.9H645.3z M723.7,172c-5.2-5.7-8.7-12.8-10.3-20.4c0-0.1-1.1-4-1.1-10.1c0-11.4,4.1-22.3,11.5-30.5
		c3.7-4.1,8-7.3,12.9-9.6c5-2.4,10.4-3.6,16-3.6c9.4,0,16.8,2.2,22.4,6.4c5.4,4,8.4,9.6,8.4,15.5c0,6.3-3.4,12.3-9.3,16.5
		c-6.3,4.5-15.1,6.8-25.2,6.8H727c-0.1,0-1.4,0.1-1.8,0.5c-1.7,1.5-1.2,3.8-1.2,3.8l0,0.1l0,0c2.5,15.8,14.7,27.5,28.8,27.5
		c9.4,0,16.3-2.8,20.5-7.9l3.4-4.1l9,6.1l-3.4,4.1c-4.5,5.5-13.4,12-29.5,12C741.6,185.2,731.3,180.4,723.7,172z M724.4,133
		c1.8-0.2,2.5-0.2,2.6-0.2h21.8c7.8,0,14.1-1.7,18.2-4.6c3.3-2.4,5-5.4,5-8.4c0-5.3-5.5-11.7-19.4-11.7
		C739.3,108.1,727.8,118.6,724.4,133z M817,177.9c-6.8-4.9-10.7-11.6-10.7-18.9c0-7.2,3.9-14,10.7-18.9c6.5-4.7,15.1-7.3,24.1-7.3
		l19.5,0c0,0,2,0,2.8-0.7c0.6-0.5,1.1-1.6,1.2-3.4V124c0-8.5-9.6-15.9-22.1-15.9c-8,0-15.1,3-19.1,7.9l-3.4,4.1l-9-6.1l3.4-4.1
		c6.2-7.6,16.7-12,28.1-12c8.7,0,16.9,2.6,23.2,7.3c6.5,4.9,10.1,11.6,10.1,18.8v35c0,7.2-3.8,14-10.7,18.9
		c-6.5,4.7-15.1,7.3-24.1,7.3C832.1,185.2,823.5,182.6,817,177.9z M841.1,143.1c-6.6,0-12.6,1.8-17.1,5.1c-4.2,3-6.4,6.9-6.4,10.9
		c0,4,2.2,7.8,6.4,10.9c4.5,3.2,10.5,5.1,17.1,5.1c6.6,0,12.6-1.8,17.1-5.1c4.2-3,6.4-6.9,6.4-10.9v-16.3c-2.1,0.4-3.6,0.4-4.2,0.4
		L841.1,143.1z M941.8,174.9h1.6v10.2h-1.6c-9.4,0-18.1-3.6-24.7-10c-6.5-6.3-10-14.8-10-23.7V68h11.2v31.9c1.7-0.4,3.2-0.5,5.1-0.5
		h20v10.2h-20c-2.4,0-3.7,0.5-4.3,1.1c-0.6,0.6-0.8,1.7-0.8,2.1v38.7C918.3,164.5,928.9,174.9,941.8,174.9z M982.4,182
		c-5.9-2.4-9.4-6-11.7-8.7l-3.4-4l8.9-6.2l3.4,4c3.5,4.2,7.5,7.9,23.2,7.9c14.1,0,22-6,22-15.4c0-4-1.6-6.6-5.7-8.8
		c-4.3-2.3-10.8-3.9-17.1-5.3c-7-1.6-14.4-3.3-20.3-6.6c-7.4-4.1-11.3-10.2-11.3-17.8c0-6.8,2.7-12.6,8-16.6
		c5.7-4.4,14-6.5,24.5-6.5c10.3,0,19.8,4.4,26.2,12l3.4,4l-8.9,6.2l-3.4-4c-4.3-5.1-10.6-8-17.3-8c-14.9,0-21.3,4.5-21.3,12.9
		c0,4.2,1.7,6.8,5.9,9.1c4.3,2.4,10.9,3.9,17.3,5.4c7,1.6,14.3,3.3,20.2,6.5c7.3,4,11.2,10,11.2,17.6c0,7.2-3.1,13.7-8.8,18.3
		c-6,4.8-14.5,7.3-24.5,7.3C994.3,185.1,987.8,184.2,982.4,182z"/>
</g>
</svg>
